<svg width="36" height="36" viewBox="0 0 36 36" fill="none" xmlns="http://www.w3.org/2000/svg">
<path d="M12 27V22.5M18 19.5V27M24 27V16.5M9.75 17.25L11.9469 14.687C13.3732 13.0229 15.5756 12.241 17.7318 12.6331C20.7181 13.176 23.7807 12.2193 25.9269 10.0731L26.25 9.75M15.3 31.5H20.7C25.1997 31.5 27.4495 31.5 29.0267 30.3541C29.5361 29.984 29.984 29.5361 30.3541 29.0267C31.5 27.4495 31.5 25.1997 31.5 20.7V15.3C31.5 10.8003 31.5 8.55048 30.3541 6.97329C29.984 6.46392 29.5361 6.01598 29.0267 5.6459C27.4495 4.5 25.1997 4.5 20.7 4.5H15.3C10.8003 4.5 8.55048 4.5 6.97329 5.6459C6.46392 6.01598 6.01598 6.46392 5.6459 6.97329C4.5 8.55048 4.5 10.8003 4.5 15.3V20.7C4.5 25.1997 4.5 27.4495 5.6459 29.0267C6.01598 29.5361 6.46392 29.984 6.97329 30.3541C8.55048 31.5 10.8003 31.5 15.3 31.5Z" stroke="#1C1D1D" stroke-width="2.25" stroke-linecap="round" stroke-linejoin="round"/>
</svg>
