<svg width="36" height="36" viewBox="0 0 36 36" fill="none" xmlns="http://www.w3.org/2000/svg">
<path d="M13.5 7.5V9.75M13.5 7.5V4.5M13.5 7.5H22.5M13.5 7.5C12.1065 7.5 11.4097 7.5 10.8267 7.59234C7.61755 8.10063 5.10062 10.6176 4.59234 13.8267C4.5 14.4097 4.5 15.1065 4.5 16.5V19.5C4.5 23.7004 4.5 25.8006 5.31745 27.4049C6.0365 28.8162 7.18386 29.9635 8.59507 30.6826C10.1994 31.5 12.2996 31.5 16.5 31.5H19.5C23.7004 31.5 25.8006 31.5 27.4049 30.6826C28.8162 29.9635 29.9635 28.8162 30.6826 27.4049C31.5 25.8006 31.5 23.7004 31.5 19.5V16.5C31.5 15.1065 31.5 14.4097 31.4077 13.8267C30.8994 10.6176 28.3825 8.10063 25.1733 7.59234C24.5903 7.5 23.8935 7.5 22.5 7.5M22.5 7.5V4.5M22.5 7.5V9.75M18 25.5V15M11.25 25.5V15M24.75 25.5V15" stroke="#1C1D1D" stroke-width="2.25" stroke-linecap="round" stroke-linejoin="round"/>
</svg>
