<svg width="30" height="30" viewBox="0 0 30 30" fill="none" xmlns="http://www.w3.org/2000/svg">
<path d="M21.7153 11.2622C21.7153 12.495 20.6835 13.4944 19.4108 13.4944C18.138 13.4944 17.1062 12.495 17.1062 11.2622C17.1062 10.0294 18.138 9.02997 19.4108 9.02997C20.6835 9.02997 21.7153 10.0294 21.7153 11.2622Z" stroke="#1C1D1D" stroke-width="1.875"/>
<path d="M13.1556 11.2622C13.1556 12.495 12.1238 13.4944 10.8511 13.4944C9.57829 13.4944 8.54652 12.495 8.54652 11.2622C8.54652 10.0294 9.57829 9.02997 10.8511 9.02997C12.1238 9.02997 13.1556 10.0294 13.1556 11.2622Z" stroke="#1C1D1D" stroke-width="1.875"/>
<path d="M13.814 18.9155C13.814 20.1484 12.7823 21.1478 11.5095 21.1478C10.2367 21.1478 9.20496 20.1484 9.20496 18.9155C9.20496 17.6827 10.2367 16.6833 11.5095 16.6833C12.7823 16.6833 13.814 17.6827 13.814 18.9155Z" stroke="#1C1D1D" stroke-width="1.875"/>
<path d="M26.2477 12.074C26.111 6.4045 17.8677 2.85548 11.8642 3.9468C5.86067 5.03813 2.95625 10.9538 3.93744 16.6833C4.89143 22.254 11.1803 26.25 15.1309 26.25C19.0815 26.25 22.3737 24.3367 19.596 22.0567C18.8233 21.4579 18.1939 20.7038 17.7513 19.8464C17.0874 18.5603 18.2887 16.7242 19.7675 16.8504C22.7686 17.1065 26.3542 16.495 26.2477 12.074Z" stroke="#1C1D1D" stroke-width="1.875"/>
</svg>
