<svg width="36" height="36" viewBox="0 0 36 36" fill="none" xmlns="http://www.w3.org/2000/svg">
<path d="M20.7 4.5H15.3C10.8003 4.5 8.55048 4.5 6.97329 5.6459C6.46392 6.01598 6.01598 6.46392 5.6459 6.97329C4.5 8.55048 4.5 10.8003 4.5 15.3V20.7C4.5 25.1997 4.5 27.4495 5.6459 29.0267C6.01598 29.5361 6.46392 29.984 6.97329 30.3541C8.55048 31.5 10.8003 31.5 15.3 31.5H20.7C25.1997 31.5 27.4495 31.5 29.0267 30.3541C29.5361 29.984 29.984 29.5361 30.3541 29.0267C31.5 27.4495 31.5 25.1997 31.5 20.7V15.3C31.5 10.8003 31.5 8.55048 30.3541 6.97329C29.984 6.46392 29.5361 6.01598 29.0267 5.6459C27.4495 4.5 25.1997 4.5 20.7 4.5Z" stroke="#1C1D1D" stroke-width="2.25" stroke-linecap="round" stroke-linejoin="round"/>
<path d="M10.5 27.0008H25.5M15.5 16.8955H14.1539C12.9335 16.8955 12.3233 16.8955 12.0986 17.2047C12.0291 17.3004 11.9831 17.4113 11.9646 17.5282C11.9049 17.9056 12.3363 18.3371 13.1993 19.2001L17.0454 23.0462C17.4431 23.4439 17.642 23.6427 17.8827 23.6809C17.9604 23.6932 18.0396 23.6932 18.1173 23.6809C18.358 23.6427 18.5569 23.4439 18.9546 23.0462L22.8007 19.2001C23.6637 18.3371 24.0952 17.9056 24.0354 17.5282C24.0169 17.4113 23.9709 17.3004 23.9014 17.2047C23.6768 16.8955 23.0665 16.8955 21.8461 16.8955H20.5L19.6885 10.4881C19.5808 9.63762 18.8573 9 18 9C17.1427 9 16.4192 9.63762 16.3115 10.4881L15.5 16.8955Z" stroke="#1C1D1D" stroke-width="2.25" stroke-linecap="round" stroke-linejoin="round"/>
</svg>
