<svg width="36" height="36" viewBox="0 0 36 36" fill="none" xmlns="http://www.w3.org/2000/svg">
<path d="M18 7.5C22.862 7.5 27.1278 11.0285 29.8547 13.9946C31.0652 15.3113 31.6704 15.9696 31.8747 17.3334C31.9247 17.6672 31.9247 18.3328 31.8747 18.6666C31.6704 20.0304 31.0652 20.6887 29.8547 22.0054C27.1278 24.9715 22.862 28.5 18 28.5C13.138 28.5 8.87222 24.9715 6.1453 22.0054C4.93482 20.6887 4.32958 20.0304 4.1253 18.6666C4.07529 18.3328 4.07529 17.6672 4.1253 17.3334C4.32958 15.9696 4.93482 15.3113 6.14531 13.9946C8.87222 11.0285 13.138 7.5 18 7.5Z" stroke="white" stroke-width="2.25" stroke-linejoin="round"/>
<path d="M22.5 18C22.5 20.4853 20.4853 22.5 18 22.5C15.5147 22.5 13.5 20.4853 13.5 18C13.5 15.5147 15.5147 13.5 18 13.5C20.4853 13.5 22.5 15.5147 22.5 18Z" stroke="white" stroke-width="2.25" stroke-linejoin="round"/>
</svg>
