<svg width="56" height="56" viewBox="0 0 56 56" fill="none" xmlns="http://www.w3.org/2000/svg">
<path d="M28 7H21C17.134 7 14 10.134 14 14C14 17.866 17.134 21 21 21M28 7H35C38.866 7 42 10.134 42 14C42 17.866 38.866 21 35 21H28M28 7V21M28 21H21M28 21V35M21 21C17.134 21 14 24.134 14 28C14 31.866 17.134 35 21 35M28 35H21M28 35V42C28 45.866 24.866 49 21 49C17.134 49 14 45.866 14 42C14 38.134 17.134 35 21 35M42 28.2917C42 31.9966 38.9966 35 35.2917 35C31.5868 35 28.5833 31.9966 28.5833 28.2917C28.5833 24.5868 31.5868 21.5833 35.2917 21.5833C38.9966 21.5833 42 24.5868 42 28.2917Z" stroke="#1C1D1D" stroke-width="3.5"/>
</svg>
