<svg width="36" height="36" viewBox="0 0 36 36" fill="none" xmlns="http://www.w3.org/2000/svg">
<path d="M14.625 12C14.625 12.8284 13.9534 13.5 13.125 13.5C12.2966 13.5 11.625 12.8284 11.625 12C11.625 11.1716 12.2966 10.5 13.125 10.5C13.9534 10.5 14.625 11.1716 14.625 12Z" fill="#1C1D1D"/>
<path d="M18 12H23.25M12.75 18H23.25M12.75 24H23.25M15.6 31.5H20.4C23.7748 31.5 25.4622 31.5 26.645 30.6406C27.0271 30.363 27.363 30.0271 27.6406 29.6451C28.5 28.4622 28.5 26.7748 28.5 23.4V12.6C28.5 9.22525 28.5 7.53787 27.6406 6.35497C27.363 5.97295 27.0271 5.63699 26.645 5.35943C25.4622 4.5 23.7748 4.5 20.4 4.5H15.6C12.2252 4.5 10.5379 4.5 9.35497 5.35943C8.97294 5.63699 8.63698 5.97295 8.35942 6.35497C7.5 7.53787 7.5 9.22525 7.5 12.6V23.4C7.5 26.7748 7.5 28.4622 8.35942 29.6451C8.63698 30.0271 8.97294 30.363 9.35497 30.6406C10.5379 31.5 12.2252 31.5 15.6 31.5Z" stroke="#1C1D1D" stroke-width="2.25" stroke-linecap="round" stroke-linejoin="round"/>
</svg>
