<svg width="36" height="36" viewBox="0 0 36 36" fill="none" xmlns="http://www.w3.org/2000/svg">
<path fill-rule="evenodd" clip-rule="evenodd" d="M30.2705 16.957C30.3738 17.9246 30.375 19.1915 30.375 21C30.375 22.8085 30.3738 24.0754 30.2705 25.043C30.169 25.9935 29.9807 26.5084 29.708 26.875C29.4222 27.2592 29.0573 27.578 28.6387 27.8105C28.2393 28.0323 27.7044 28.151 26.749 28.126C25.7763 28.1005 24.5202 27.9343 22.7275 27.6953L19.2188 27.2275L19.1785 27.2222C18.7481 27.1648 18.4518 27.1252 18.1494 27.1172C18.05 27.1146 17.95 27.1146 17.8506 27.1172C17.5482 27.1252 17.2519 27.1648 16.8216 27.2222L16.7813 27.2275L13.2725 27.6953C11.4799 27.9343 10.2237 28.1005 9.25098 28.126C8.29562 28.151 7.76069 28.0323 7.36133 27.8105C6.94274 27.578 6.57783 27.2592 6.29199 26.875C6.01927 26.5084 5.83101 25.9935 5.72949 25.043C5.62616 24.0754 5.625 22.8085 5.625 21C5.625 19.1915 5.62616 17.9246 5.72949 16.957C5.83101 16.0065 6.01927 15.4916 6.29199 15.125C6.57783 14.7408 6.94274 14.422 7.36133 14.1895C7.76069 13.9677 8.29562 13.849 9.25098 13.874C10.2237 13.8995 11.4799 14.0657 13.2725 14.3047L17.8516 14.915C17.9501 14.9282 18.0499 14.9282 18.1484 14.915L22.7275 14.3047C24.5202 14.0657 25.7763 13.8995 26.749 13.874C27.7044 13.849 28.2393 13.9677 28.6387 14.1895C29.0573 14.422 29.4222 14.7408 29.708 15.125C29.9807 15.4916 30.169 16.0065 30.2705 16.957ZM10.875 22.125V23.25C10.875 23.8713 11.3787 24.375 12 24.375C12.6213 24.375 13.125 23.8713 13.125 23.25V22.125H14.25C14.8713 22.125 15.375 21.6213 15.375 21C15.375 20.3787 14.8713 19.875 14.25 19.875H13.125V18.75C13.125 18.1287 12.6213 17.625 12 17.625C11.3787 17.625 10.875 18.1287 10.875 18.75V19.875H9.75C9.12868 19.875 8.625 20.3787 8.625 21C8.625 21.6213 9.12868 22.125 9.75 22.125H10.875ZM32.625 21.0808V21V20.9192C32.625 19.1983 32.6251 17.8155 32.5078 16.7178C32.3869 15.5861 32.1295 14.6113 31.5127 13.7822C31.0363 13.1419 30.4291 12.6102 29.7314 12.2227C28.8282 11.7209 27.8281 11.5953 26.6904 11.625C25.5821 11.654 24.2046 11.8377 22.4886 12.0665L22.4307 12.0742L19.125 12.5147C19.1251 10.8478 19.1279 9.67795 19.2256 8.77637C19.3226 7.88095 19.5025 7.38424 19.7695 7.0166C19.9777 6.73008 20.2301 6.4777 20.5166 6.26953C20.8842 6.00251 21.3809 5.82263 22.2764 5.72559C23.1932 5.62626 24.3874 5.625 26.0996 5.625H26.25C26.8713 5.625 27.375 5.12132 27.375 4.5C27.375 3.87868 26.8713 3.375 26.25 3.375H26.0996H26.0468C24.4091 3.37499 23.089 3.37498 22.0342 3.48926C20.947 3.60707 20.0085 3.85699 19.1934 4.44922C18.716 4.79609 18.2961 5.21598 17.9492 5.69336C17.357 6.5085 17.1071 7.447 16.9893 8.53418C16.8757 9.58209 16.875 10.8918 16.875 12.5147L13.5693 12.0742L13.5114 12.0665C11.7955 11.8377 10.4179 11.654 9.30957 11.625C8.17189 11.5953 7.17181 11.7209 6.26856 12.2227C5.57091 12.6102 4.9637 13.1419 4.48731 13.7822C3.87051 14.6113 3.61308 15.5861 3.49219 16.7178C3.37495 17.8156 3.37497 19.1983 3.375 20.9193V21V21.0807C3.37497 22.8017 3.37495 24.1844 3.49219 25.2822C3.61308 26.4139 3.87051 27.3887 4.48731 28.2178C4.9637 28.8581 5.57091 29.3898 6.26856 29.7773C7.17181 30.2791 8.17189 30.4047 9.30957 30.375C10.4179 30.346 11.7954 30.1623 13.5114 29.9335L13.5693 29.9258L17.0781 29.458C17.5751 29.3918 17.7448 29.3706 17.9102 29.3662C17.9698 29.3646 18.0302 29.3646 18.0898 29.3662C18.2552 29.3706 18.4249 29.3918 18.9219 29.458L22.4307 29.9258L22.4887 29.9335C24.2046 30.1623 25.5821 30.346 26.6904 30.375C27.8281 30.4047 28.8282 30.2791 29.7314 29.7773C30.4291 29.3898 31.0363 28.8581 31.5127 28.2178C32.1295 27.3887 32.3869 26.4139 32.5078 25.2822C32.6251 24.1845 32.625 22.8017 32.625 21.0808ZM24 19.875C23.3787 19.875 22.875 19.3713 22.875 18.75C22.875 18.1287 23.3787 17.625 24 17.625C24.6213 17.625 25.125 18.1287 25.125 18.75C25.125 19.3713 24.6213 19.875 24 19.875ZM21.75 22.125C22.3713 22.125 22.875 21.6213 22.875 21C22.875 20.3787 22.3713 19.875 21.75 19.875C21.1287 19.875 20.625 20.3787 20.625 21C20.625 21.6213 21.1287 22.125 21.75 22.125ZM26.25 22.125C26.8713 22.125 27.375 21.6213 27.375 21C27.375 20.3787 26.8713 19.875 26.25 19.875C25.6287 19.875 25.125 20.3787 25.125 21C25.125 21.6213 25.6287 22.125 26.25 22.125ZM22.875 23.25C22.875 23.8713 23.3787 24.375 24 24.375C24.6213 24.375 25.125 23.8713 25.125 23.25C25.125 22.6287 24.6213 22.125 24 22.125C23.3787 22.125 22.875 22.6287 22.875 23.25Z" fill="#1C1D1D"/>
</svg>
