<svg width="36" height="36" viewBox="0 0 36 36" fill="none" xmlns="http://www.w3.org/2000/svg">
<path d="M27.2369 13.5282V22.6263C27.2369 23.588 27.2369 24.0688 27.0586 24.4896C26.9999 24.6281 26.9275 24.7603 26.8424 24.8844C26.584 25.2612 26.1788 25.5203 25.3686 26.0384L20.1818 29.3549C19.2427 29.9554 18.7731 30.2557 18.2555 30.3148C18.0857 30.3342 17.9143 30.3342 17.7446 30.3148C17.2269 30.2557 16.7573 29.9554 15.8183 29.3549L10.6314 26.0384C9.82117 25.5203 9.41606 25.2612 9.1576 24.8844C9.07253 24.7603 9.00012 24.6281 8.94144 24.4896C8.76316 24.0688 8.76316 23.588 8.76316 22.6263V13.5282M31.5 11.4643L19.6935 6.02954C18.9542 5.68925 18.5846 5.5191 18.1939 5.4853C18.0649 5.47414 17.9351 5.47414 17.8061 5.4853C17.4154 5.5191 17.0458 5.68925 16.3065 6.02954L4.5 11.4643L16.2352 17.1456C17.0043 17.518 17.3888 17.7041 17.7974 17.7411C17.9322 17.7532 18.0678 17.7532 18.2026 17.7411C18.6112 17.7041 18.9957 17.518 19.7648 17.1456L31.5 11.4643ZM31.5 11.4643V25.35C31.5 26.2314 31.5 26.6721 31.347 27.0656C31.2966 27.1953 31.2342 27.3201 31.1607 27.4383C30.9377 27.7967 30.5852 28.0612 29.88 28.59L28.125 29.9063" stroke="#1C1D1D" stroke-width="2.25" stroke-linecap="round" stroke-linejoin="round"/>
</svg>
