<svg width="36" height="36" viewBox="0 0 36 36" fill="none" xmlns="http://www.w3.org/2000/svg">
<path d="M8.45406 11.0459C12.4313 7.06875 14.4199 5.08016 16.8267 4.69894C17.6041 4.57582 18.3959 4.57582 19.1733 4.69894C21.5802 5.08016 23.5688 7.06875 27.546 11.0459C29.2775 12.7775 30.1433 13.6433 30.6826 14.7017C30.8609 15.0518 31.0115 15.4153 31.1329 15.789C31.5 16.9187 31.5 18.1431 31.5 20.5919V27C31.5 29.4853 29.4853 31.5 27 31.5C24.5147 31.5 22.5 29.4853 22.5 27V25.5C22.5 23.0147 20.4853 21 18 21C15.5147 21 13.5 23.0147 13.5 25.5V27C13.5 29.4853 11.4853 31.5 9 31.5C6.51472 31.5 4.5 29.4853 4.5 27V20.5919C4.5 18.1431 4.5 16.9187 4.86708 15.789C4.98849 15.4153 5.13908 15.0518 5.31745 14.7017C5.85674 13.6433 6.72251 12.7775 8.45406 11.0459Z" stroke="#1C1D1D" stroke-width="2.25" stroke-linejoin="round"/>
</svg>
