<svg width="30" height="30" viewBox="0 0 30 30" fill="none" xmlns="http://www.w3.org/2000/svg">
<path d="M5.97183 17.2011C5.63977 17.6553 5.3926 18.2579 5.1975 19.037C4.54068 21.6602 4.21227 22.9718 4.87187 24.2354C5.06254 24.6006 5.39733 25.0296 5.70533 25.3032C6.77082 26.25 8.39419 26.25 11.6409 26.25H18.3591C21.6058 26.25 23.2292 26.25 24.2947 25.3032C24.6027 25.0296 24.9375 24.6006 25.1281 24.2354C25.7877 22.9718 25.4593 21.6602 24.8025 19.037C24.6074 18.2579 24.3602 17.6553 24.0282 17.2011M13.75 23.4375H16.25M9.14062 20.2344L9.0625 20.3125M9.14062 20.2344V20.3906M9.14062 20.2344H8.98437M9.0625 20.3125L9.14062 20.3906M9.0625 20.3125L8.98437 20.3906M9.0625 20.3125L8.98437 20.2344M9.14062 20.3906H8.98437M8.98437 20.3906V20.2344M9.14062 23.3594L9.0625 23.4375M9.14062 23.3594V23.5156M9.14062 23.3594H8.98437M9.0625 23.4375L9.14062 23.5156M9.0625 23.4375L8.98437 23.5156M9.0625 23.4375L8.98437 23.3594M9.14062 23.5156H8.98437M8.98437 23.5156V23.3594M15.0781 20.2344L15 20.3125M15.0781 20.2344V20.3906M15.0781 20.2344H14.9219M15 20.3125L15.0781 20.3906M15 20.3125L14.9219 20.3906M15 20.3125L14.9219 20.2344M15.0781 20.3906H14.9219M14.9219 20.3906L14.9219 20.2344M21.0187 20.2344L20.9406 20.3125M21.0187 20.2344V20.3906M21.0187 20.2344H20.8625M20.9406 20.3125L21.0187 20.3906M20.9406 20.3125L20.8625 20.3906M20.9406 20.3125L20.8625 20.2344M21.0187 20.3906H20.8625M20.8625 20.3906V20.2344M21.0187 23.3594L20.9406 23.4375M21.0187 23.3594V23.5156M21.0187 23.3594H20.8625M20.9406 23.4375L21.0187 23.5156M20.9406 23.4375L20.8625 23.5156M20.9406 23.4375L20.8625 23.3594M21.0187 23.5156H20.8625M20.8625 23.5156V23.3594M11.75 17.5H18.25C21.0623 17.5 22.4684 17.5 23.4542 16.7838C23.7725 16.5525 24.0525 16.2725 24.2838 15.9542C25 14.9684 25 13.5623 25 10.75V10.5C25 7.6877 25 6.28155 24.2838 5.2958C24.0525 4.97745 23.7725 4.69748 23.4542 4.46619C22.4684 3.75 21.0623 3.75 18.25 3.75H11.75C8.9377 3.75 7.53155 3.75 6.5458 4.46619C6.22745 4.69748 5.94748 4.97745 5.71619 5.2958C5 6.28155 5 7.6877 5 10.5V10.75C5 13.5623 5 14.9684 5.71619 15.9542C5.94748 16.2725 6.22745 16.5525 6.5458 16.7838C7.53155 17.5 8.9377 17.5 11.75 17.5Z" stroke="#1C1D1D" stroke-width="1.875" stroke-linecap="round" stroke-linejoin="round"/>
</svg>
