<svg width="24" height="24" viewBox="0 0 24 24" fill="none" xmlns="http://www.w3.org/2000/svg">
<path d="M9.75 8C9.75 8.55228 9.30228 9 8.75 9C8.19772 9 7.75 8.55228 7.75 8C7.75 7.44772 8.19772 7 8.75 7C9.30228 7 9.75 7.44772 9.75 8Z" fill="#1C1D1D"/>
<path d="M12 8H15.5M8.5 12H15.5M8.5 16H15.5M10.4 21H13.6C15.8498 21 16.9748 21 17.7634 20.4271C18.018 20.242 18.242 20.018 18.4271 19.7634C19 18.9748 19 17.8498 19 15.6V8.4C19 6.15016 19 5.02524 18.4271 4.23664C18.242 3.98196 18.018 3.75799 17.7634 3.57295C16.9748 3 15.8498 3 13.6 3H10.4C8.15016 3 7.02524 3 6.23664 3.57295C5.98196 3.75799 5.75799 3.98196 5.57295 4.23664C5 5.02524 5 6.15016 5 8.4V15.6C5 17.8498 5 18.9748 5.57295 19.7634C5.75799 20.018 5.98196 20.242 6.23664 20.4271C7.02524 21 8.15016 21 10.4 21Z" stroke="#1C1D1D" stroke-width="1.5" stroke-linecap="round" stroke-linejoin="round"/>
</svg>
