<svg width="36" height="36" viewBox="0 0 36 36" fill="none" xmlns="http://www.w3.org/2000/svg">
<path d="M15 27.75H21M17.1 31.5H18.9C22.2748 31.5 23.9621 31.5 25.145 30.6406C25.5271 30.363 25.863 30.0271 26.1406 29.645C27 28.4621 27 26.7748 27 23.4V12.6C27 9.22524 27 7.53786 26.1406 6.35497C25.863 5.97294 25.5271 5.63698 25.145 5.35942C23.9621 4.5 22.2748 4.5 18.9 4.5H17.1C13.7252 4.5 12.0379 4.5 10.855 5.35942C10.4729 5.63698 10.137 5.97294 9.85942 6.35497C9 7.53786 9 9.22524 9 12.6V23.4C9 26.7748 9 28.4621 9.85942 29.645C10.137 30.0271 10.4729 30.363 10.855 30.6406C12.0379 31.5 13.7252 31.5 17.1 31.5Z" stroke="#1C1D1D" stroke-width="2.25" stroke-linecap="round" stroke-linejoin="round"/>
<path d="M19.125 7.875C19.125 8.49632 18.6213 9 18 9C17.3787 9 16.875 8.49632 16.875 7.875C16.875 7.25368 17.3787 6.75 18 6.75C18.6213 6.75 19.125 7.25368 19.125 7.875Z" fill="#1C1D1D"/>
</svg>
