<svg width="36" height="36" viewBox="0 0 36 36" fill="none" xmlns="http://www.w3.org/2000/svg">
<path d="M4.5 18V12.6C4.5 9.22525 4.5 7.53787 5.35942 6.35497C5.63698 5.97295 5.97294 5.63699 6.35497 5.35943C7.53786 4.5 9.22525 4.5 12.6 4.5H14.0988C14.9117 4.5 15.3181 4.5 15.7086 4.56938C16.1868 4.65434 16.6481 4.81615 17.0746 5.04855C17.4229 5.23832 17.7403 5.49222 18.375 6C19.0097 6.50779 19.3271 6.76168 19.6754 6.95146C20.1019 7.18385 20.5632 7.34567 21.0414 7.43063C21.4319 7.50001 21.8383 7.50001 22.6512 7.50001H23.4C26.7748 7.50001 28.4622 7.50001 29.645 8.35943C30.0271 8.63699 30.363 8.97295 30.6406 9.35497C31.5 10.5379 31.5 12.2253 31.5 15.6V18M14.0988 10.5H12.6C9.22524 10.5 7.53786 10.5 6.35497 11.3594C5.97294 11.637 5.63698 11.9729 5.35942 12.355C4.5 13.5379 4.5 15.2253 4.5 18.6V23.4C4.5 26.7748 4.5 28.4622 5.35942 29.6451C5.63698 30.0271 5.97294 30.363 6.35497 30.6406C7.53786 31.5 9.22525 31.5 12.6 31.5H23.4C26.7748 31.5 28.4622 31.5 29.645 30.6406C30.0271 30.363 30.363 30.0271 30.6406 29.6451C31.5 28.4622 31.5 26.7748 31.5 23.4V21.6C31.5 18.2253 31.5 16.5379 30.6406 15.355C30.363 14.973 30.0271 14.637 29.645 14.3594C28.4622 13.5 26.7748 13.5 23.4 13.5H22.6512C21.8383 13.5 21.4319 13.5 21.0414 13.4306C20.5632 13.3457 20.1019 13.1839 19.6754 12.9515C19.3271 12.7617 19.0097 12.5078 18.375 12C17.7403 11.4922 17.4229 11.2383 17.0746 11.0486C16.6481 10.8162 16.1868 10.6543 15.7086 10.5694C15.3181 10.5 14.9117 10.5 14.0988 10.5Z" stroke="#1C1D1D" stroke-width="2.25" stroke-linecap="round" stroke-linejoin="round"/>
</svg>
