<svg width="50" height="50" viewBox="0 0 50 50" fill="none" xmlns="http://www.w3.org/2000/svg">
<path d="M25 4.6875C36.2183 4.6875 45.3125 13.7817 45.3125 25C45.3125 36.2183 36.2183 45.3125 25 45.3125C13.7817 45.3125 4.6875 36.2183 4.6875 25C4.6875 13.7817 13.7817 4.6875 25 4.6875ZM32.1895 15.417C31.4995 14.8989 30.5202 15.0387 30.002 15.7285C29.4838 16.4184 29.6228 17.3977 30.3125 17.916C32.4659 19.5341 33.8535 22.1048 33.8535 25C33.8535 29.8899 29.8899 33.8543 25 33.8545C20.1101 33.8543 16.1455 29.8899 16.1455 25C16.1455 22.1047 17.5345 19.5342 19.6885 17.916C20.3782 17.3977 20.5171 16.4184 19.999 15.7285C19.4808 15.0388 18.5014 14.8991 17.8115 15.417C14.906 17.5997 13.0205 21.0799 13.0205 25C13.0205 31.6158 18.3842 36.9793 25 36.9795C31.6158 36.9793 36.9785 31.6158 36.9785 25C36.9785 21.0804 35.0949 17.5999 32.1895 15.417ZM25 10.9375C24.1372 10.9377 23.4375 11.6372 23.4375 12.5V20.833C23.4375 21.6958 24.1372 22.3953 25 22.3955C25.8628 22.3953 26.5625 21.6958 26.5625 20.833V12.5C26.5625 11.6372 25.8628 10.9377 25 10.9375Z" fill="#1C1D1D"/>
</svg>
