<svg width="36" height="36" viewBox="0 0 36 36" fill="none" xmlns="http://www.w3.org/2000/svg">
<path d="M19.125 25.125C19.125 25.7463 18.6213 26.25 18 26.25C17.3787 26.25 16.875 25.7463 16.875 25.125C16.875 24.5037 17.3787 24 18 24C18.6213 24 19.125 24.5037 19.125 25.125Z" fill="white"/>
<path d="M14.625 14.4941C14.625 12.7024 16.136 11.25 18 11.25C19.864 11.25 21.375 12.7024 21.375 14.4941C21.375 15.576 20.8241 16.5341 19.9772 17.1235C19.5076 17.4504 18.9435 17.6446 18.5468 18.0568C17.6091 19.0311 17.3559 20.5028 18.0265 21.75M31.5 18C31.5 25.4559 25.4559 31.5 18 31.5C10.5442 31.5 4.5 25.4559 4.5 18C4.5 10.5442 10.5442 4.5 18 4.5C25.4559 4.5 31.5 10.5442 31.5 18Z" stroke="white" stroke-width="2.25" stroke-linecap="round" stroke-linejoin="round"/>
</svg>
