<svg width="56" height="56" viewBox="0 0 56 56" fill="none" xmlns="http://www.w3.org/2000/svg">
<path d="M28 11.6667C29.2887 11.6667 30.3333 10.622 30.3333 9.33333C30.3333 8.04467 29.2887 7 28 7C26.7113 7 25.6667 8.04467 25.6667 9.33333C25.6667 10.622 26.7113 11.6667 28 11.6667Z" fill="#1C1D1D"/>
<path d="M11.6667 27.1797V38.8464M11.6667 27.1797C9.08934 27.1797 7 29.269 7 31.8464V34.1797C7 36.757 9.08934 38.8464 11.6667 38.8464M11.6667 27.1797C11.6667 25.0098 11.6667 23.9248 11.9052 23.0346C12.5525 20.619 14.4393 18.7321 16.8549 18.0849C17.7451 17.8464 18.8301 17.8464 21 17.8464H28M11.6667 38.8464C11.6667 41.0163 11.6667 42.1013 11.9052 42.9914C12.5525 45.4071 14.4393 47.2939 16.8549 47.9412C17.7451 48.1797 18.8301 48.1797 21 48.1797H35C37.1699 48.1797 38.2549 48.1797 39.1451 47.9412C41.5607 47.2939 43.4476 45.4071 44.0948 42.9914C44.3333 42.1013 44.3333 41.0163 44.3333 38.8464M44.3333 27.1797V38.8464M44.3333 27.1797C46.9107 27.1797 49 29.269 49 31.8464V34.1797C49 36.757 46.9107 38.8464 44.3333 38.8464M44.3333 27.1797C44.3333 25.0098 44.3333 23.9248 44.0948 23.0346C43.4476 20.619 41.5607 18.7321 39.1451 18.0849C38.2549 17.8464 37.1699 17.8464 35 17.8464H28M35 38.8464H21M28 17.8464V11.6667M28 11.6667C29.2887 11.6667 30.3333 10.622 30.3333 9.33333C30.3333 8.04467 29.2887 7 28 7C26.7113 7 25.6667 8.04467 25.6667 9.33333C25.6667 10.622 26.7113 11.6667 28 11.6667ZM33.25 27.1797C32.2835 27.1797 31.5 27.9632 31.5 28.9297C31.5 29.8962 32.2835 30.6797 33.25 30.6797C34.2165 30.6797 35 29.8962 35 28.9297C35 27.9632 34.2165 27.1797 33.25 27.1797ZM22.75 27.1797C21.7835 27.1797 21 27.9632 21 28.9297C21 29.8962 21.7835 30.6797 22.75 30.6797C23.7165 30.6797 24.5 29.8962 24.5 28.9297C24.5 27.9632 23.7165 27.1797 22.75 27.1797Z" stroke="#1C1D1D" stroke-width="3.5" stroke-linecap="round" stroke-linejoin="round"/>
</svg>
