<svg width="36" height="36" viewBox="0 0 36 36" fill="none" xmlns="http://www.w3.org/2000/svg">
<path d="M13.7448 9.16368C14.3254 7.50409 14.6156 6.6743 14.8757 6.28249C16.3592 4.04782 19.6408 4.04782 21.1243 6.28249C21.3844 6.6743 21.6886 7.54385 22.297 9.28296C22.4241 9.64647 22.4877 9.82822 22.5562 9.97954C23.1142 11.2123 24.2931 12.0488 25.641 12.1685C25.8064 12.1832 25.989 12.1832 26.3542 12.1832H26.7209C27.7739 12.1832 28.3004 12.1832 28.5634 12.2206C31.6654 12.6623 32.8899 16.4878 30.621 18.6487C30.4287 18.8319 30 19.1376 29.1427 19.7491C28.8979 19.9238 28.7755 20.0111 28.6711 20.0975C27.5396 21.0348 27.0597 22.5467 27.4436 23.965C27.479 24.0958 27.5303 24.2424 27.6329 24.5357C28.0652 25.7717 28.2814 26.3896 28.3343 26.7128C28.8165 29.658 25.8324 31.959 23.1066 30.7438C22.8075 30.6104 22.2818 30.2557 21.2304 29.5462L20.5436 29.0828C20.1153 28.7938 19.9012 28.6492 19.6896 28.5425C18.627 28.0062 17.373 28.0062 16.3104 28.5425C16.0988 28.6492 15.8847 28.7938 15.4564 29.0828L14.8 29.5257C13.7241 30.2517 13.1862 30.6147 12.8795 30.75C10.1614 31.9486 7.19518 29.6614 7.66328 26.7278C7.7161 26.3969 7.93714 25.765 8.37923 24.5013C8.48308 24.2044 8.53501 24.056 8.5708 23.9231C8.94742 22.5253 8.48579 21.0355 7.38478 20.0956C7.28015 20.0062 7.15734 19.9161 6.91173 19.7357C6.05791 19.1089 5.631 18.7954 5.43775 18.6051C3.22956 16.4306 4.46246 12.6681 7.52933 12.2222C7.79773 12.1832 8.32735 12.1832 9.38659 12.1832H9.65801C10.0115 12.1832 10.1883 12.1832 10.3485 12.1694C11.7043 12.0529 12.8906 11.2111 13.4482 9.96985C13.5141 9.82319 13.5724 9.65635 13.6892 9.32267L13.7448 9.16368Z" stroke="#1C1D1D" stroke-width="2.25" stroke-linejoin="round"/>
</svg>
